HIERARCHY
ROOT SpineBase
{
  OFFSET 0.000000 0.000000 0.000000
  CHANNELS 6 Xposition Yposition Zposition Zrotation Xrotation Yrotation
  JOINT SpineMid
  {
    OFFSET 0.000000 22.140886 0.000000
    CHANNELS 3 Zrotation Xrotation Yrotation
    JOINT SpineShoulder
    {
      OFFSET 0.278592 16.479057 -0.318747
      CHANNELS 3 Zrotation Xrotation Yrotation
      JOINT Neck
      {
        OFFSET 0.122614 5.460092 -0.283817
        CHANNELS 3 Zrotation Xrotation Yrotation
        JOINT Head
        {
          OFFSET 1.586965 9.959905 3.425621
          CHANNELS 3 Zrotation Xrotation Yrotation
          End Site
          {
            OFFSET 0 0 0
          }
        }
      }
      JOINT ShoulderLeft
      {
        OFFSET -2.367508 -4.572884 -11.910988
        CHANNELS 3 Zrotation Xrotation Yrotation
        JOINT ElbowLeft
        {
          OFFSET -1.438329 -19.802899 -4.753754
          CHANNELS 3 Zrotation Xrotation Yrotation
          JOINT WristLeft
          {
            OFFSET 3.302222 -20.332038 0.854531
            CHANNELS 3 Zrotation Xrotation Yrotation
            JOINT HandLeft
            {
              OFFSET 0.234228 -4.915486 1.147580
              CHANNELS 3 Zrotation Xrotation Yrotation
              JOINT HandTipLeft
              {
                OFFSET 0.993571 -6.474592 0.447373
                CHANNELS 3 Zrotation Xrotation Yrotation
                End Site
                {
                  OFFSET 0 0 0
                }
              }
              JOINT ThumbLeft
              {
                OFFSET -1.431656 -0.238854 -1.780067
                CHANNELS 3 Zrotation Xrotation Yrotation
                End Site
                {
                  OFFSET 0 0 0
                }
              }
            }
          }
        }
      }
      JOINT ShoulderRight
      {
        OFFSET 5.881631 -6.451929 13.020021
        CHANNELS 3 Zrotation Xrotation Yrotation
        JOINT ElbowRight
        {
          OFFSET 2.685848 -27.156476 -2.831452
          CHANNELS 3 Zrotation Xrotation Yrotation
          JOINT WristRight
          {
            OFFSET -1.839228 -18.715245 -13.516551
            CHANNELS 3 Zrotation Xrotation Yrotation
            JOINT HandRight
            {
              OFFSET -1.335721 -2.536674 -2.513719
              CHANNELS 3 Zrotation Xrotation Yrotation
              JOINT HandTipRight
              {
                OFFSET -0.392600 -4.647209 -1.441423
                CHANNELS 3 Zrotation Xrotation Yrotation
                End Site
                {
                  OFFSET 0 0 0
                }
              }
              JOINT ThumbRight
              {
                OFFSET 0.754458 -2.848285 0.152209
                CHANNELS 3 Zrotation Xrotation Yrotation
                End Site
                {
                  OFFSET 0 0 0
                }
              }
            }
          }
        }
      }
    }
  }
  JOINT HipLeft
  {
    OFFSET -0.920993 0.406957 -7.187037
    CHANNELS 3 Zrotation Xrotation Yrotation
    JOINT KneeLeft
    {
      OFFSET -8.403455 -42.101750 3.844416
      CHANNELS 3 Zrotation Xrotation Yrotation
      JOINT AnkleLeft
      {
        OFFSET -7.616892 -35.379657 2.485450
        CHANNELS 3 Zrotation Xrotation Yrotation
        JOINT FootLeft
        {
          OFFSET 2.575667 -6.139619 -0.467216
          CHANNELS 3 Zrotation Xrotation Yrotation
          End Site
          {
            OFFSET 0 0 0
          }
        }
      }
    }
  }
  JOINT HipRight
  {
    OFFSET 2.299034 0.358045 2.064200
    CHANNELS 3 Zrotation Xrotation Yrotation
    JOINT KneeRight
    {
      OFFSET 1.899295 -28.088751 14.680107
      CHANNELS 3 Zrotation Xrotation Yrotation
      JOINT AnkleRight
      {
        OFFSET -11.784552 -29.872069 -11.225925
        CHANNELS 3 Zrotation Xrotation Yrotation
        JOINT FootRight
        {
          OFFSET 7.887539 -3.791408 -4.703807
          CHANNELS 3 Zrotation Xrotation Yrotation
          End Site
          {
            OFFSET 0 0 0
          }
        }
      }
    }
  }
}
MOTION
Frames: 10
Frame Time: 0.033333
-86.582025 83.731771 337.221126 -0.000000 0.000000 -70.808813 -0.000000 0.000000 70.808813 -0.000000 0.000000 0.000000 -0.000000 0.000000 0.000000 0.000000 0.000000 0.000000 -0.000000 0.000000 0.000000 -0.000000 0.000000 0.000000 -0.000000 0.000000 0.000000 -0.000000 0.000000 0.000000 0.000000 0.000000 0.000000 0.000000 0.000000 0.000000 -0.000000 0.000000 0.000000 -0.000000 0.000000 0.000000 -0.000000 0.000000 0.000000 -0.000000 0.000000 0.000000 0.000000 0.000000 0.000000 0.000000 0.000000 0.000000 -0.000000 0.000000 70.808813 -0.000000 0.000000 0.000000 -0.000000 0.000000 0.000000 0.000000 0.000000 0.000000 -0.000000 0.000000 70.808813 -0.000000 0.000000 0.000000 -0.000000 0.000000 0.000000 0.000000 0.000000 0.000000
-87.024924 83.641989 337.021800 -0.723200 0.414613 -70.866445 0.628753 0.547353 70.866059 -0.000000 0.000000 0.000000 -0.000000 0.000000 0.000000 0.000000 0.000000 0.000000 -0.000000 0.000000 0.000000 -0.000000 0.000000 0.000000 1.104202 1.388863 0.311334 -0.678275 0.136125 -0.070513 0.000000 0.000000 0.000000 0.000000 0.000000 0.000000 -0.000000 0.000000 0.000000 -0.000000 0.000000 0.000000 -1.071739 -1.602771 1.907971 0.471948 2.038811 -1.748905 0.000000 0.000000 0.000000 0.000000 0.000000 0.000000 0.628753 0.547353 70.866059 -0.000000 0.000000 0.000000 -0.000000 0.000000 0.000000 0.000000 0.000000 0.000000 1.426479 0.887865 71.116617 -0.580308 0.644571 -0.257286 -0.000000 0.000000 0.000000 0.000000 0.000000 0.000000
-87.386872 83.569032 336.858350 -1.316196 0.761356 -70.916451 1.149841 0.994952 70.915212 -0.000000 0.000000 0.000000 -0.000000 0.000000 0.000000 0.000000 0.000000 0.000000 -0.000000 0.000000 0.000000 -0.000000 0.000000 0.000000 1.894091 2.434840 0.520191 -1.076057 0.548873 -0.074338 0.000000 0.000000 0.000000 0.000000 0.000000 0.000000 -0.000000 0.000000 0.000000 -0.000000 0.000000 0.000000 -2.078635 -2.834227 3.553371 1.077860 3.723642 -3.290058 0.000000 0.000000 0.000000 0.000000 0.000000 0.000000 1.701085 1.694364 71.037545 -0.840503 0.294001 -0.133112 0.722954 0.488828 0.146536 0.000000 0.000000 0.000000 2.455250 1.603231 71.336887 -0.993738 1.042015 -0.442235 -0.000000 0.000000 0.000000 0.000000 0.000000 0.000000
-87.667870 83.512901 336.730774 -1.781074 1.041378 -70.968240 0.830172 0.620572 70.953044 0.110854 -0.441119 -0.019715 0.846795 0.812461 -0.101119 0.000000 0.000000 0.000000 0.813019 -0.017125 0.042774 -0.000000 0.000000 0.000000 2.417016 3.186405 0.652578 -1.242064 1.175095 -0.018386 0.000000 0.000000 0.000000 0.000000 0.000000 0.000000 0.813019 -0.017125 0.042774 0.627240 -0.325386 -0.420339 -3.646464 -3.380829 5.384469 1.802536 5.030383 -4.630701 0.000000 0.000000 0.000000 0.000000 0.000000 0.000000 2.315193 2.293611 71.126443 -1.140792 0.402360 -0.180177 0.891538 0.711611 0.224315 0.000000 0.000000 0.000000 3.104103 2.149956 71.495616 -1.251949 1.203319 -0.563323 -0.000000 0.000000 0.000000 0.000000 0.000000 0.000000
-87.867916 83.473596 336.639074 -2.119550 1.255683 -71.029557 0.978275 0.706843 71.013310 0.105990 -0.529758 -0.026919 1.166967 0.956086 -0.151587 0.000000 0.000000 0.000000 1.027323 -0.029453 0.054338 -0.000000 0.000000 0.000000 2.704107 3.677689 0.724504 -1.210973 1.969324 0.090770 0.000000 0.000000 0.000000 0.000000 0.000000 0.000000 1.027323 -0.029453 0.054338 0.785664 -0.459804 -0.520950 -4.742159 -3.708676 6.644947 2.630863 5.937623 -5.773631 0.000000 0.000000 0.000000 0.000000 0.000000 0.000000 2.774011 2.729081 71.213376 -1.361141 0.484654 -0.214848 0.932512 0.919972 0.306266 0.000000 0.000000 0.000000 3.383693 2.531533 71.611334 -1.362231 1.134840 -0.625485 -0.000000 0.000000 0.000000 0.000000 0.000000 0.000000
-87.987012 83.451117 336.583249 -2.332914 1.405072 -71.106029 1.063931 0.734105 71.089127 0.080304 -0.589555 -0.034148 1.507300 1.035808 -0.210689 0.000000 0.000000 0.000000 1.213834 -0.045108 0.064603 -0.000000 0.000000 0.000000 2.774085 3.931022 0.745040 -1.005868 2.900224 0.247814 0.000000 0.000000 0.000000 0.000000 0.000000 0.000000 1.213834 -0.045108 0.064603 0.918233 -0.606636 -0.601471 -5.814495 -3.614316 7.652301 3.546792 6.425195 -6.715000 0.000000 0.000000 0.000000 0.000000 0.000000 0.000000 3.078720 3.001701 71.306062 -1.501593 0.540741 -0.237449 0.846370 1.113858 0.393149 0.000000 0.000000 0.000000 3.298434 2.750140 71.695328 -1.327924 0.838454 -0.630535 -0.000000 0.000000 0.000000 0.000000 0.000000 0.000000
-88.075188 83.422827 336.520615 -2.495717 1.537587 -70.955116 1.144342 0.683205 70.936721 0.045513 -0.666913 -0.042677 1.949126 1.089606 -0.282865 0.000000 0.000000 0.000000 1.431310 -0.009885 0.074770 -0.000000 0.000000 0.000000 2.504570 4.196042 0.698320 -0.835962 4.827855 0.607833 0.000000 0.000000 0.000000 0.000000 0.000000 0.000000 1.431310 -0.009885 0.074770 0.998255 -0.950495 -0.623550 -7.021286 -2.592849 8.387575 4.341120 5.754256 -7.283546 0.000000 0.000000 0.000000 0.000000 0.000000 0.000000 3.363138 3.212438 71.171696 -1.635379 0.599101 -0.259755 0.652622 1.867433 0.720561 0.000000 0.000000 0.000000 3.273320 2.804589 71.504875 -1.216696 0.652786 -0.587001 -0.000000 0.000000 0.000000 0.000000 0.000000 0.000000
-88.061069 83.455093 336.524858 -2.503477 1.567401 -71.021138 1.113242 0.589299 71.000839 -0.024321 -0.675742 -0.051351 2.443515 1.131817 -0.394538 0.000000 0.000000 0.000000 1.608858 -0.028119 0.084686 -0.000000 0.000000 0.000000 1.840878 2.938676 0.525391 0.445412 8.069390 1.129269 0.000000 0.000000 0.000000 0.000000 0.000000 0.000000 1.608858 -0.028119 0.084686 1.073076 -1.237186 -0.647484 -7.685581 -2.780880 9.258575 5.348929 10.125443 -8.343890 0.000000 0.000000 0.000000 0.000000 0.000000 0.000000 3.430806 3.244912 71.245520 -1.677645 0.627871 -0.268680 0.028650 1.957908 0.817621 0.000000 0.000000 0.000000 2.138156 2.783818 71.486577 -0.827940 -0.443953 -0.465226 -0.000000 0.000000 0.000000 0.000000 0.000000 0.000000
-87.855610 83.498035 336.578258 -2.198137 1.530472 -71.119102 0.975546 0.365370 71.096755 -0.110708 -0.625751 -0.055586 2.779189 1.073236 -0.495211 0.000000 0.000000 0.000000 1.647899 -0.097369 0.089276 -0.000000 0.000000 0.000000 1.544133 2.540773 0.449399 1.861057 7.597076 1.125903 0.000000 0.000000 0.000000 0.000000 0.000000 0.000000 1.647899 -0.097369 0.089276 1.154115 -1.364044 -0.692389 -8.882148 -1.264307 9.596934 7.325346 7.087301 -8.886341 0.000000 0.000000 0.000000 0.000000 0.000000 0.000000 3.227354 2.795750 71.337755 -1.488665 0.624065 -0.251869 -0.620705 1.586350 0.722241 0.000000 0.000000 0.000000 0.694573 2.386203 71.431591 0.103696 -2.582012 -0.031667 -0.397015 0.938677 -0.216901 0.000000 0.000000 0.000000
-87.669499 83.564119 336.718127 -1.945089 1.394988 -71.845769 0.807385 0.249354 71.821835 -0.213794 -0.534629 -0.059674 3.004305 0.920938 -0.547200 0.000000 0.000000 0.000000 1.063788 0.382047 0.199568 0.605216 -0.552427 -0.102401 1.050047 1.895008 0.319186 1.925984 6.389652 1.008421 0.000000 0.000000 0.000000 0.000000 0.000000 0.000000 1.670899 -0.168290 0.093117 1.210842 -1.404424 -0.728860 -10.448715 2.148692 9.277692 8.550480 2.248292 -8.101089 0.000000 0.000000 0.000000 0.000000 0.000000 0.000000 2.873919 2.462952 72.045330 -1.288355 0.572864 -0.225148 -0.251676 1.820139 0.786553 0.000000 0.000000 0.000000 0.490416 2.058362 72.082664 -0.169657 -1.568980 -0.195708 -0.000000 0.000000 0.000000 0.000000 0.000000 0.000000
